<svg width="50" height="50" viewBox="0 0 50 50" fill="none" xmlns="http://www.w3.org/2000/svg">
    <rect width="50" height="50" fill="#2E7EEE" />
    <path
        d="M31.5 10C32.3284 10 33 10.6716 33 11.5V16.5C33 17.3284 32.3284 18 31.5 18H30.997V19.515L39.7172 31.6234C39.8704 31.8362 39.9647 32.0846 39.9918 32.3436L40 32.5V38.5C40 39.3284 39.3284 40 38.5 40H11.5C10.6716 40 10 39.3284 10 38.5V32.5C10 32.1854 10.0989 31.8788 10.2827 31.6235L19.001 19.515V18H18.5C17.7203 18 17.0795 17.4051 17.0069 16.6445L17 16.5V11.5C17 10.6716 17.6716 10 18.5 10H31.5ZM30 13H20V15H20.5011C21.2807 15 21.9215 15.5949 21.9942 16.3555L22.0011 16.5V19.8783C22.0011 20.272 21.8773 20.6558 21.6472 20.9753L13 32.983V37H37V32.984L28.3519 20.9754C28.1547 20.7015 28.0355 20.3804 28.0055 20.0463L27.998 19.8783V16.5C27.998 15.6716 28.6695 15 29.498 15H30V13ZM29.3999 31C30.2283 31 30.8999 31.6716 30.8999 32.5C30.8999 33.3284 30.2283 34 29.3999 34H25.8C24.9716 34 24.3 33.3284 24.3 32.5C24.3 31.6716 24.9716 31 25.8 31H29.3999ZM21.729 25.4393L24.3973 28.1077C24.9831 28.6935 24.9831 29.6432 24.3973 30.229L21.729 32.8973C21.1432 33.4831 20.1935 33.4831 19.6077 32.8973C19.0219 32.3115 19.0219 31.3618 19.6077 30.776L21.2149 29.1687L19.6077 27.5607C19.0563 27.0093 19.0239 26.1356 19.5104 25.5463L19.6077 25.4393C20.1935 24.8536 21.1432 24.8536 21.729 25.4393Z"
        fill="white" />
</svg>